<svg width="68" height="68" viewBox="0 0 68 68" fill="none" xmlns="http://www.w3.org/2000/svg">
<g clip-path="url(#clip0_1_697)">
<path d="M23.0013 20.4731L20.8245 16.7028L18.645 16.5408L17.8418 18.425L20.0202 22.1979C21.585 22.4851 22.7475 21.8784 23.0013 20.4731Z" fill="#B9C1CB"/>
<path d="M44.998 20.4731L47.1748 16.7028L49.3543 16.5408L50.1576 18.425L47.9792 22.1979C46.4144 22.4851 45.2519 21.8784 44.998 20.4731Z" fill="#B9C1CB"/>
<path d="M35.7689 14.5933C38.5008 13.8106 40.4088 11.2766 40.4088 8.4312C40.4088 4.89706 37.5336 2.02194 33.9994 2.02194C30.4653 2.02194 27.59 4.8972 27.59 8.4312C27.59 11.2766 29.498 13.8106 32.23 14.5933L32.5071 16.7303C28.473 16.009 25.5684 12.4569 25.5684 8.43107C25.5682 3.78223 29.3505 0 33.9994 0C38.6484 0 42.4306 3.78223 42.4306 8.43107C42.4306 12.451 39.5345 15.9986 35.5096 16.7271L35.7689 14.5933Z" fill="#DAE4EA"/>
<path d="M33.9991 18.4867C34.6887 18.4867 35.3716 18.519 36.047 18.5822V10.1661H31.9512V18.5822C32.6267 18.519 33.3096 18.4867 33.9991 18.4867Z" fill="#B9C1CB"/>
<path d="M33.9998 67.9997C47.8252 67.9997 59.0329 56.792 59.0329 42.9667C59.0329 29.1413 47.8252 17.9337 33.9998 17.9337C20.1745 17.9337 8.9668 29.1413 8.9668 42.9667C8.9668 56.792 20.1745 67.9997 33.9998 67.9997Z" fill="#DAE4EA"/>
<path d="M37.0328 6.13019H30.965C30.6639 6.13019 30.4199 6.37416 30.4199 6.67525V10.1865C30.4199 10.4876 30.6639 10.7316 30.965 10.7316H37.0328C37.3339 10.7316 37.5778 10.4876 37.5778 10.1865V6.67525C37.5778 6.3743 37.3337 6.13019 37.0328 6.13019Z" fill="#DAE4EA"/>
<path d="M21.135 16.5236L17.5317 18.604C17.3961 18.6822 17.2227 18.6359 17.1445 18.5003L14.452 13.8368C14.3738 13.7012 14.4201 13.5279 14.5557 13.4497L18.1591 11.3693C18.2947 11.2911 18.468 11.3374 18.5462 11.473L21.2387 16.1365C21.3171 16.272 21.2706 16.4453 21.135 16.5236Z" fill="#DAE4EA"/>
<path d="M46.8645 16.5236L50.4678 18.604C50.6034 18.6822 50.7767 18.6359 50.8549 18.5003L53.5474 13.8368C53.6257 13.7012 53.5793 13.5279 53.4437 13.4497L49.8404 11.3693C49.7048 11.2911 49.5315 11.3374 49.4532 11.473L46.7607 16.1365C46.6824 16.272 46.7289 16.4453 46.8645 16.5236Z" fill="#DAE4EA"/>
<path d="M33.9995 63.4491C45.3114 63.4491 54.4815 54.279 54.4815 42.9671C54.4815 31.6552 45.3114 22.4852 33.9995 22.4852C22.6877 22.4852 13.5176 31.6552 13.5176 42.9671C13.5176 54.279 22.6877 63.4491 33.9995 63.4491Z" fill="#F6F9F9"/>
<path d="M51.1125 42.967C51.1125 33.5797 43.5144 25.9335 34.1451 25.8553C34.0654 25.8546 34.0001 25.9198 34.0001 25.9995V42.967H17.0328C16.9531 42.967 16.888 43.0323 16.8887 43.112C16.9669 52.4813 24.6129 60.0793 34.0004 60.0793C34.0386 60.0793 34.0767 60.0792 34.1147 60.079C43.4979 60.0172 51.1125 52.3647 51.1125 42.967Z" fill="#FFC954"/>
<path d="M38.8159 26.5446C43.0039 29.6668 45.721 34.6577 45.721 40.2713C45.721 49.6688 38.1063 57.3215 28.723 57.3831C28.685 57.3834 28.6469 57.3835 28.6086 57.3835C26.9372 57.3835 25.3211 57.1426 23.793 56.6937C26.6445 58.8196 30.1779 60.0792 34.0001 60.0792C34.0384 60.0792 34.0765 60.0791 34.1145 60.0788C43.4978 60.0172 51.1125 52.3645 51.1125 42.967C51.1124 35.2026 45.9146 28.6296 38.8159 26.5446Z" fill="#E1A729"/>
</g>
<defs>
<clipPath id="clip0_1_697">
<rect width="68" height="68" fill="white"/>
</clipPath>
</defs>
</svg>
